<svg width="40" height="40" viewBox="0 0 40 40" fill="none" xmlns="http://www.w3.org/2000/svg">
<path d="M26.6665 33.5001V27.6667C26.6665 24.7771 25 22.5 20.9998 22.5H9.66646C5.5 22.5 3.5 24.8155 3.5 27.6667V33.5001" stroke="#613EEA" stroke-width="3" stroke-linecap="round" stroke-linejoin="round"/>
<path d="M15.3337 16.3333C18.4633 16.3333 21.0003 13.7963 21.0003 10.6667C21.0003 7.53705 18.4633 5 15.3337 5C12.204 5 9.66699 7.53705 9.66699 10.6667C9.66699 13.7963 12.204 16.3333 15.3337 16.3333Z" stroke="#613EEA" stroke-width="3" stroke-linecap="round" stroke-linejoin="round"/>
<path d="M35.167 33.4999V27.6666C35.1661 26.411 34.7482 25.1913 33.9789 24.199C33.2097 23.2067 32.1327 22.498 30.917 22.1841" stroke="#613EEA" stroke-width="3" stroke-linecap="round" stroke-linejoin="round"/>
<path d="M25.25 5.18408C26.4689 5.49618 27.5493 6.20508 28.3208 7.19902C29.0923 8.19297 29.5111 9.41542 29.5111 10.6737C29.5111 11.9319 29.0923 13.1544 28.3208 14.1483C27.5493 15.1423 26.4689 15.8512 25.25 16.1632" stroke="#613EEA" stroke-width="3" stroke-linecap="round" stroke-linejoin="round"/>
<rect opacity="0.2" x="7" y="26" width="16" height="8" rx="2" fill="#613EEA"/>
</svg>
